<svg aria-roledescription="er" role="graphics-document document" viewBox="0 -62 478.2234802246094 503" height="503" xmlns="http://www.w3.org/2000/svg" width="478.2234802246094" id="container"><style>#container{font-family:"trebuchet ms",verdana,arial,sans-serif;font-size:16px;fill:#333;}#container .error-icon{fill:#552222;}#container .error-text{fill:#552222;stroke:#552222;}#container .edge-thickness-normal{stroke-width:1px;}#container .edge-thickness-thick{stroke-width:3.5px;}#container .edge-pattern-solid{stroke-dasharray:0;}#container .edge-thickness-invisible{stroke-width:0;fill:none;}#container .edge-pattern-dashed{stroke-dasharray:3;}#container .edge-pattern-dotted{stroke-dasharray:2;}#container .marker{fill:#333333;stroke:#333333;}#container .marker.cross{stroke:#333333;}#container svg{font-family:"trebuchet ms",verdana,arial,sans-serif;font-size:16px;}#container p{margin:0;}#container .entityBox{fill:#ECECFF;stroke:#9370DB;}#container .attributeBoxOdd{fill:#ffffff;stroke:#9370DB;}#container .attributeBoxEven{fill:#f2f2f2;stroke:#9370DB;}#container .relationshipLabelBox{fill:hsl(80, 100%, 96.2745098039%);opacity:0.7;background-color:hsl(80, 100%, 96.2745098039%);}#container .relationshipLabelBox rect{opacity:0.5;}#container .relationshipLine{stroke:#333333;}#container .entityTitleText{text-anchor:middle;font-size:18px;fill:#333;}#container #MD_PARENT_START{fill:#f5f5f5!important;stroke:#333333!important;stroke-width:1;}#container #MD_PARENT_END{fill:#f5f5f5!important;stroke:#333333!important;stroke-width:1;}#container :root{--mermaid-font-family:"trebuchet ms",verdana,arial,sans-serif;}</style><g></g><defs><marker orient="auto" markerHeight="240" markerWidth="190" refY="7" refX="0" id="MD_PARENT_START"><path d="M 18,7 L9,13 L1,7 L9,1 Z"></path></marker></defs><defs><marker orient="auto" markerHeight="28" markerWidth="20" refY="7" refX="19" id="MD_PARENT_END"><path d="M 18,7 L9,13 L1,7 L9,1 Z"></path></marker></defs><defs><marker orient="auto" markerHeight="18" markerWidth="18" refY="9" refX="0" id="ONLY_ONE_START"><path d="M9,0 L9,18 M15,0 L15,18" fill="none" stroke="gray"></path></marker></defs><defs><marker orient="auto" markerHeight="18" markerWidth="18" refY="9" refX="18" id="ONLY_ONE_END"><path d="M3,0 L3,18 M9,0 L9,18" fill="none" stroke="gray"></path></marker></defs><defs><marker orient="auto" markerHeight="18" markerWidth="30" refY="9" refX="0" id="ZERO_OR_ONE_START"><circle r="6" cy="9" cx="21" fill="white" stroke="gray"></circle><path d="M9,0 L9,18" fill="none" stroke="gray"></path></marker></defs><defs><marker orient="auto" markerHeight="18" markerWidth="30" refY="9" refX="30" id="ZERO_OR_ONE_END"><circle r="6" cy="9" cx="9" fill="white" stroke="gray"></circle><path d="M21,0 L21,18" fill="none" stroke="gray"></path></marker></defs><defs><marker orient="auto" markerHeight="36" markerWidth="45" refY="18" refX="18" id="ONE_OR_MORE_START"><path d="M0,18 Q 18,0 36,18 Q 18,36 0,18 M42,9 L42,27" fill="none" stroke="gray"></path></marker></defs><defs><marker orient="auto" markerHeight="36" markerWidth="45" refY="18" refX="27" id="ONE_OR_MORE_END"><path d="M3,9 L3,27 M9,18 Q27,0 45,18 Q27,36 9,18" fill="none" stroke="gray"></path></marker></defs><defs><marker orient="auto" markerHeight="36" markerWidth="57" refY="18" refX="18" id="ZERO_OR_MORE_START"><circle r="6" cy="18" cx="48" fill="white" stroke="gray"></circle><path d="M0,18 Q18,0 36,18 Q18,36 0,18" fill="none" stroke="gray"></path></marker></defs><defs><marker orient="auto" markerHeight="36" markerWidth="57" refY="18" refX="39" id="ZERO_OR_MORE_END"><circle r="6" cy="18" cx="9" fill="white" stroke="gray"></circle><path d="M21,18 Q39,0 57,18 Q39,36 21,18" fill="none" stroke="gray"></path></marker></defs><path style="stroke: gray; fill: none;" marker-start="url(#ONLY_ONE_START)" marker-end="url(#ZERO_OR_MORE_END)" d="M91.479,132L83.145,141C74.812,150,58.145,168,56.099,194.917C54.052,221.833,66.625,257.667,72.911,275.583L79.198,293.5" class="er relationshipLine"></path><path style="stroke: gray; fill: none;" marker-start="url(#ONLY_ONE_START)" marker-end="url(#ZERO_OR_MORE_END)" d="M191.479,114L208.145,126C224.812,138,258.145,162,280.66,182.333C303.175,202.667,314.871,219.333,320.718,227.667L326.566,236" class="er relationshipLine"></path><path style="stroke: gray; fill: none;" marker-start="url(#ONLY_ONE_START)" marker-end="url(#ZERO_OR_MORE_END)" d="M291.479,114L274.812,126C258.145,138,224.812,162,195.572,191.917C166.333,221.833,141.186,257.667,128.613,275.583L116.04,293.5" class="er relationshipLine"></path><path style="stroke: gray; fill: none;" marker-start="url(#ONLY_ONE_START)" marker-end="url(#ZERO_OR_MORE_END)" d="M391.479,132L399.812,141C408.145,150,424.812,168,430.221,185.333C435.631,202.667,429.783,219.333,426.859,227.667L423.935,236" class="er relationshipLine"></path><g transform="translate(324.73392486572266,236 )" id="entity-PRODUCT-b14524a1-8e20-5805-a382-423fd1ec339f"><rect height="185" width="133.48956298828125" y="0" x="0" class="er entityBox"></rect><text style="dominant-baseline: middle; text-anchor: middle; font-size: 12px;" transform="translate(66.74478149414062,12)" y="0" x="0" id="text-entity-PRODUCT-b14524a1-8e20-5805-a382-423fd1ec339f" class="er entityLabel">PRODUCT</text><rect height="23" width="42.60578918457031" y="24" x="0" class="er attributeBoxOdd"></rect><text style="dominant-baseline: middle; font-size: 10.2px;" transform="translate(5,35.5)" y="0" x="0" id="text-entity-PRODUCT-b14524a1-8e20-5805-a382-423fd1ec339f-attr-1-type" class="er entityLabel">integer</text><rect height="23" width="68.96189880371094" y="24" x="42.60578918457031" class="er attributeBoxOdd"></rect><text style="dominant-baseline: middle; font-size: 10.2px;" transform="translate(47.60578918457031,35.5)" y="0" x="0" id="text-entity-PRODUCT-b14524a1-8e20-5805-a382-423fd1ec339f-attr-1-name" class="er entityLabel">id</text><rect height="23" width="21.921875" y="24" x="111.56768798828125" class="er attributeBoxOdd"></rect><text style="dominant-baseline: middle; font-size: 10.2px;" transform="translate(116.56768798828125,35.5)" y="0" x="0" id="text-entity-PRODUCT-b14524a1-8e20-5805-a382-423fd1ec339f-attr-1-key" class="er entityLabel">PK</text><rect height="23" width="42.60578918457031" y="47" x="0" class="er attributeBoxEven"></rect><text style="dominant-baseline: middle; font-size: 10.2px;" transform="translate(5,58.5)" y="0" x="0" id="text-entity-PRODUCT-b14524a1-8e20-5805-a382-423fd1ec339f-attr-2-type" class="er entityLabel">string</text><rect height="23" width="68.96189880371094" y="47" x="42.60578918457031" class="er attributeBoxEven"></rect><text style="dominant-baseline: middle; font-size: 10.2px;" transform="translate(47.60578918457031,58.5)" y="0" x="0" id="text-entity-PRODUCT-b14524a1-8e20-5805-a382-423fd1ec339f-attr-2-name" class="er entityLabel">name</text><rect height="23" width="21.921875" y="47" x="111.56768798828125" class="er attributeBoxEven"></rect><text style="dominant-baseline: middle; font-size: 10.2px;" transform="translate(116.56768798828125,58.5)" y="0" x="0" id="text-entity-PRODUCT-b14524a1-8e20-5805-a382-423fd1ec339f-attr-2-key" class="er entityLabel"></text><rect height="23" width="42.60578918457031" y="70" x="0" class="er attributeBoxOdd"></rect><text style="dominant-baseline: middle; font-size: 10.2px;" transform="translate(5,81.5)" y="0" x="0" id="text-entity-PRODUCT-b14524a1-8e20-5805-a382-423fd1ec339f-attr-3-type" class="er entityLabel">string</text><rect height="23" width="68.96189880371094" y="70" x="42.60578918457031" class="er attributeBoxOdd"></rect><text style="dominant-baseline: middle; font-size: 10.2px;" transform="translate(47.60578918457031,81.5)" y="0" x="0" id="text-entity-PRODUCT-b14524a1-8e20-5805-a382-423fd1ec339f-attr-3-name" class="er entityLabel">description</text><rect height="23" width="21.921875" y="70" x="111.56768798828125" class="er attributeBoxOdd"></rect><text style="dominant-baseline: middle; font-size: 10.2px;" transform="translate(116.56768798828125,81.5)" y="0" x="0" id="text-entity-PRODUCT-b14524a1-8e20-5805-a382-423fd1ec339f-attr-3-key" class="er entityLabel"></text><rect height="23" width="42.60578918457031" y="93" x="0" class="er attributeBoxEven"></rect><text style="dominant-baseline: middle; font-size: 10.2px;" transform="translate(5,104.5)" y="0" x="0" id="text-entity-PRODUCT-b14524a1-8e20-5805-a382-423fd1ec339f-attr-4-type" class="er entityLabel">integer</text><rect height="23" width="68.96189880371094" y="93" x="42.60578918457031" class="er attributeBoxEven"></rect><text style="dominant-baseline: middle; font-size: 10.2px;" transform="translate(47.60578918457031,104.5)" y="0" x="0" id="text-entity-PRODUCT-b14524a1-8e20-5805-a382-423fd1ec339f-attr-4-name" class="er entityLabel">price</text><rect height="23" width="21.921875" y="93" x="111.56768798828125" class="er attributeBoxEven"></rect><text style="dominant-baseline: middle; font-size: 10.2px;" transform="translate(116.56768798828125,104.5)" y="0" x="0" id="text-entity-PRODUCT-b14524a1-8e20-5805-a382-423fd1ec339f-attr-4-key" class="er entityLabel"></text><rect height="23" width="42.60578918457031" y="116" x="0" class="er attributeBoxOdd"></rect><text style="dominant-baseline: middle; font-size: 10.2px;" transform="translate(5,127.5)" y="0" x="0" id="text-entity-PRODUCT-b14524a1-8e20-5805-a382-423fd1ec339f-attr-5-type" class="er entityLabel">integer</text><rect height="23" width="68.96189880371094" y="116" x="42.60578918457031" class="er attributeBoxOdd"></rect><text style="dominant-baseline: middle; font-size: 10.2px;" transform="translate(47.60578918457031,127.5)" y="0" x="0" id="text-entity-PRODUCT-b14524a1-8e20-5805-a382-423fd1ec339f-attr-5-name" class="er entityLabel">quantity</text><rect height="23" width="21.921875" y="116" x="111.56768798828125" class="er attributeBoxOdd"></rect><text style="dominant-baseline: middle; font-size: 10.2px;" transform="translate(116.56768798828125,127.5)" y="0" x="0" id="text-entity-PRODUCT-b14524a1-8e20-5805-a382-423fd1ec339f-attr-5-key" class="er entityLabel"></text><rect height="23" width="42.60578918457031" y="139" x="0" class="er attributeBoxEven"></rect><text style="dominant-baseline: middle; font-size: 10.2px;" transform="translate(5,150.5)" y="0" x="0" id="text-entity-PRODUCT-b14524a1-8e20-5805-a382-423fd1ec339f-attr-6-type" class="er entityLabel">integer</text><rect height="23" width="68.96189880371094" y="139" x="42.60578918457031" class="er attributeBoxEven"></rect><text style="dominant-baseline: middle; font-size: 10.2px;" transform="translate(47.60578918457031,150.5)" y="0" x="0" id="text-entity-PRODUCT-b14524a1-8e20-5805-a382-423fd1ec339f-attr-6-name" class="er entityLabel">ratings</text><rect height="23" width="21.921875" y="139" x="111.56768798828125" class="er attributeBoxEven"></rect><text style="dominant-baseline: middle; font-size: 10.2px;" transform="translate(116.56768798828125,150.5)" y="0" x="0" id="text-entity-PRODUCT-b14524a1-8e20-5805-a382-423fd1ec339f-attr-6-key" class="er entityLabel"></text><rect height="23" width="42.60578918457031" y="162" x="0" class="er attributeBoxOdd"></rect><text style="dominant-baseline: middle; font-size: 10.2px;" transform="translate(5,173.5)" y="0" x="0" id="text-entity-PRODUCT-b14524a1-8e20-5805-a382-423fd1ec339f-attr-7-type" class="er entityLabel">integer</text><rect height="23" width="68.96189880371094" y="162" x="42.60578918457031" class="er attributeBoxOdd"></rect><text style="dominant-baseline: middle; font-size: 10.2px;" transform="translate(47.60578918457031,173.5)" y="0" x="0" id="text-entity-PRODUCT-b14524a1-8e20-5805-a382-423fd1ec339f-attr-7-name" class="er entityLabel">ratingCounts</text><rect height="23" width="21.921875" y="162" x="111.56768798828125" class="er attributeBoxOdd"></rect><text style="dominant-baseline: middle; font-size: 10.2px;" transform="translate(116.56768798828125,173.5)" y="0" x="0" id="text-entity-PRODUCT-b14524a1-8e20-5805-a382-423fd1ec339f-attr-7-key" class="er entityLabel"></text></g><g transform="translate(20,293.5 )" id="entity-USER-6e7e2962-0c6f-577d-a7fd-2ce3a0cfd2c8"><rect height="70" width="142.95741271972656" y="0" x="0" class="er entityBox"></rect><text style="dominant-baseline: middle; text-anchor: middle; font-size: 12px;" transform="translate(71.47870635986328,12)" y="0" x="0" id="text-entity-USER-6e7e2962-0c6f-577d-a7fd-2ce3a0cfd2c8" class="er entityLabel">USER</text><rect height="23" width="37.21012878417969" y="24" x="0" class="er attributeBoxOdd"></rect><text style="dominant-baseline: middle; font-size: 10.2px;" transform="translate(5,35.5)" y="0" x="0" id="text-entity-USER-6e7e2962-0c6f-577d-a7fd-2ce3a0cfd2c8-attr-1-type" class="er entityLabel">int</text><rect height="23" width="83.82540893554688" y="24" x="37.21012878417969" class="er attributeBoxOdd"></rect><text style="dominant-baseline: middle; font-size: 10.2px;" transform="translate(42.21012878417969,35.5)" y="0" x="0" id="text-entity-USER-6e7e2962-0c6f-577d-a7fd-2ce3a0cfd2c8-attr-1-name" class="er entityLabel">id</text><rect height="23" width="21.921875" y="24" x="121.03553771972656" class="er attributeBoxOdd"></rect><text style="dominant-baseline: middle; font-size: 10.2px;" transform="translate(126.03553771972656,35.5)" y="0" x="0" id="text-entity-USER-6e7e2962-0c6f-577d-a7fd-2ce3a0cfd2c8-attr-1-key" class="er entityLabel">PK</text><rect height="23" width="37.21012878417969" y="47" x="0" class="er attributeBoxEven"></rect><text style="dominant-baseline: middle; font-size: 10.2px;" transform="translate(5,58.5)" y="0" x="0" id="text-entity-USER-6e7e2962-0c6f-577d-a7fd-2ce3a0cfd2c8-attr-2-type" class="er entityLabel">string</text><rect height="23" width="83.82540893554688" y="47" x="37.21012878417969" class="er attributeBoxEven"></rect><text style="dominant-baseline: middle; font-size: 10.2px;" transform="translate(42.21012878417969,58.5)" y="0" x="0" id="text-entity-USER-6e7e2962-0c6f-577d-a7fd-2ce3a0cfd2c8-attr-2-name" class="er entityLabel">deliveryAddress</text><rect height="23" width="21.921875" y="47" x="121.03553771972656" class="er attributeBoxEven"></rect><text style="dominant-baseline: middle; font-size: 10.2px;" transform="translate(126.03553771972656,58.5)" y="0" x="0" id="text-entity-USER-6e7e2962-0c6f-577d-a7fd-2ce3a0cfd2c8-attr-2-key" class="er entityLabel"></text></g><g transform="translate(91.47870635986328,20 )" id="entity-PURCHASE-6d572f07-53c8-55b4-831f-d2992ce94a0e"><rect height="116" width="100" y="0" x="0" class="er entityBox"></rect><text style="dominant-baseline: middle; text-anchor: middle; font-size: 12px;" transform="translate(50,12)" y="0" x="0" id="text-entity-PURCHASE-6d572f07-53c8-55b4-831f-d2992ce94a0e" class="er entityLabel">PURCHASE</text><rect height="23" width="25.009684244791668" y="24" x="0" class="er attributeBoxOdd"></rect><text style="dominant-baseline: middle; font-size: 10.2px;" transform="translate(5,35.5)" y="0" x="0" id="text-entity-PURCHASE-6d572f07-53c8-55b4-831f-d2992ce94a0e-attr-1-type" class="er entityLabel">int</text><rect height="23" width="50.901407877604164" y="24" x="25.009684244791668" class="er attributeBoxOdd"></rect><text style="dominant-baseline: middle; font-size: 10.2px;" transform="translate(30.009684244791668,35.5)" y="0" x="0" id="text-entity-PURCHASE-6d572f07-53c8-55b4-831f-d2992ce94a0e-attr-1-name" class="er entityLabel">id</text><rect height="23" width="24.088907877604168" y="24" x="75.91109212239583" class="er attributeBoxOdd"></rect><text style="dominant-baseline: middle; font-size: 10.2px;" transform="translate(80.91109212239583,35.5)" y="0" x="0" id="text-entity-PURCHASE-6d572f07-53c8-55b4-831f-d2992ce94a0e-attr-1-key" class="er entityLabel">PK</text><rect height="23" width="25.009684244791668" y="47" x="0" class="er attributeBoxEven"></rect><text style="dominant-baseline: middle; font-size: 10.2px;" transform="translate(5,58.5)" y="0" x="0" id="text-entity-PURCHASE-6d572f07-53c8-55b4-831f-d2992ce94a0e-attr-2-type" class="er entityLabel">int</text><rect height="23" width="50.901407877604164" y="47" x="25.009684244791668" class="er attributeBoxEven"></rect><text style="dominant-baseline: middle; font-size: 10.2px;" transform="translate(30.009684244791668,58.5)" y="0" x="0" id="text-entity-PURCHASE-6d572f07-53c8-55b4-831f-d2992ce94a0e-attr-2-name" class="er entityLabel">user_id</text><rect height="23" width="24.088907877604168" y="47" x="75.91109212239583" class="er attributeBoxEven"></rect><text style="dominant-baseline: middle; font-size: 10.2px;" transform="translate(80.91109212239583,58.5)" y="0" x="0" id="text-entity-PURCHASE-6d572f07-53c8-55b4-831f-d2992ce94a0e-attr-2-key" class="er entityLabel">FK</text><rect height="23" width="25.009684244791668" y="70" x="0" class="er attributeBoxOdd"></rect><text style="dominant-baseline: middle; font-size: 10.2px;" transform="translate(5,81.5)" y="0" x="0" id="text-entity-PURCHASE-6d572f07-53c8-55b4-831f-d2992ce94a0e-attr-3-type" class="er entityLabel">int</text><rect height="23" width="50.901407877604164" y="70" x="25.009684244791668" class="er attributeBoxOdd"></rect><text style="dominant-baseline: middle; font-size: 10.2px;" transform="translate(30.009684244791668,81.5)" y="0" x="0" id="text-entity-PURCHASE-6d572f07-53c8-55b4-831f-d2992ce94a0e-attr-3-name" class="er entityLabel">item_id</text><rect height="23" width="24.088907877604168" y="70" x="75.91109212239583" class="er attributeBoxOdd"></rect><text style="dominant-baseline: middle; font-size: 10.2px;" transform="translate(80.91109212239583,81.5)" y="0" x="0" id="text-entity-PURCHASE-6d572f07-53c8-55b4-831f-d2992ce94a0e-attr-3-key" class="er entityLabel">FK</text><rect height="23" width="25.009684244791668" y="93" x="0" class="er attributeBoxEven"></rect><text style="dominant-baseline: middle; font-size: 10.2px;" transform="translate(5,104.5)" y="0" x="0" id="text-entity-PURCHASE-6d572f07-53c8-55b4-831f-d2992ce94a0e-attr-4-type" class="er entityLabel">int</text><rect height="23" width="50.901407877604164" y="93" x="25.009684244791668" class="er attributeBoxEven"></rect><text style="dominant-baseline: middle; font-size: 10.2px;" transform="translate(30.009684244791668,104.5)" y="0" x="0" id="text-entity-PURCHASE-6d572f07-53c8-55b4-831f-d2992ce94a0e-attr-4-name" class="er entityLabel">quantity</text><rect height="23" width="24.088907877604168" y="93" x="75.91109212239583" class="er attributeBoxEven"></rect><text style="dominant-baseline: middle; font-size: 10.2px;" transform="translate(80.91109212239583,104.5)" y="0" x="0" id="text-entity-PURCHASE-6d572f07-53c8-55b4-831f-d2992ce94a0e-attr-4-key" class="er entityLabel"></text></g><g transform="translate(291.4787063598633,20 )" id="entity-CART-e3ab3ce5-09ce-52c0-b080-5a59494cc60a"><rect height="116" width="100" y="0" x="0" class="er entityBox"></rect><text style="dominant-baseline: middle; text-anchor: middle; font-size: 12px;" transform="translate(50,12)" y="0" x="0" id="text-entity-CART-e3ab3ce5-09ce-52c0-b080-5a59494cc60a" class="er entityLabel">CART</text><rect height="23" width="25.009684244791668" y="24" x="0" class="er attributeBoxOdd"></rect><text style="dominant-baseline: middle; font-size: 10.2px;" transform="translate(5,35.5)" y="0" x="0" id="text-entity-CART-e3ab3ce5-09ce-52c0-b080-5a59494cc60a-attr-1-type" class="er entityLabel">int</text><rect height="23" width="50.901407877604164" y="24" x="25.009684244791668" class="er attributeBoxOdd"></rect><text style="dominant-baseline: middle; font-size: 10.2px;" transform="translate(30.009684244791668,35.5)" y="0" x="0" id="text-entity-CART-e3ab3ce5-09ce-52c0-b080-5a59494cc60a-attr-1-name" class="er entityLabel">id</text><rect height="23" width="24.088907877604168" y="24" x="75.91109212239583" class="er attributeBoxOdd"></rect><text style="dominant-baseline: middle; font-size: 10.2px;" transform="translate(80.91109212239583,35.5)" y="0" x="0" id="text-entity-CART-e3ab3ce5-09ce-52c0-b080-5a59494cc60a-attr-1-key" class="er entityLabel">PK</text><rect height="23" width="25.009684244791668" y="47" x="0" class="er attributeBoxEven"></rect><text style="dominant-baseline: middle; font-size: 10.2px;" transform="translate(5,58.5)" y="0" x="0" id="text-entity-CART-e3ab3ce5-09ce-52c0-b080-5a59494cc60a-attr-2-type" class="er entityLabel">int</text><rect height="23" width="50.901407877604164" y="47" x="25.009684244791668" class="er attributeBoxEven"></rect><text style="dominant-baseline: middle; font-size: 10.2px;" transform="translate(30.009684244791668,58.5)" y="0" x="0" id="text-entity-CART-e3ab3ce5-09ce-52c0-b080-5a59494cc60a-attr-2-name" class="er entityLabel">user_id</text><rect height="23" width="24.088907877604168" y="47" x="75.91109212239583" class="er attributeBoxEven"></rect><text style="dominant-baseline: middle; font-size: 10.2px;" transform="translate(80.91109212239583,58.5)" y="0" x="0" id="text-entity-CART-e3ab3ce5-09ce-52c0-b080-5a59494cc60a-attr-2-key" class="er entityLabel">FK</text><rect height="23" width="25.009684244791668" y="70" x="0" class="er attributeBoxOdd"></rect><text style="dominant-baseline: middle; font-size: 10.2px;" transform="translate(5,81.5)" y="0" x="0" id="text-entity-CART-e3ab3ce5-09ce-52c0-b080-5a59494cc60a-attr-3-type" class="er entityLabel">int</text><rect height="23" width="50.901407877604164" y="70" x="25.009684244791668" class="er attributeBoxOdd"></rect><text style="dominant-baseline: middle; font-size: 10.2px;" transform="translate(30.009684244791668,81.5)" y="0" x="0" id="text-entity-CART-e3ab3ce5-09ce-52c0-b080-5a59494cc60a-attr-3-name" class="er entityLabel">item_id</text><rect height="23" width="24.088907877604168" y="70" x="75.91109212239583" class="er attributeBoxOdd"></rect><text style="dominant-baseline: middle; font-size: 10.2px;" transform="translate(80.91109212239583,81.5)" y="0" x="0" id="text-entity-CART-e3ab3ce5-09ce-52c0-b080-5a59494cc60a-attr-3-key" class="er entityLabel">FK</text><rect height="23" width="25.009684244791668" y="93" x="0" class="er attributeBoxEven"></rect><text style="dominant-baseline: middle; font-size: 10.2px;" transform="translate(5,104.5)" y="0" x="0" id="text-entity-CART-e3ab3ce5-09ce-52c0-b080-5a59494cc60a-attr-4-type" class="er entityLabel">int</text><rect height="23" width="50.901407877604164" y="93" x="25.009684244791668" class="er attributeBoxEven"></rect><text style="dominant-baseline: middle; font-size: 10.2px;" transform="translate(30.009684244791668,104.5)" y="0" x="0" id="text-entity-CART-e3ab3ce5-09ce-52c0-b080-5a59494cc60a-attr-4-name" class="er entityLabel">quantity</text><rect height="23" width="24.088907877604168" y="93" x="75.91109212239583" class="er attributeBoxEven"></rect><text style="dominant-baseline: middle; font-size: 10.2px;" transform="translate(80.91109212239583,104.5)" y="0" x="0" id="text-entity-CART-e3ab3ce5-09ce-52c0-b080-5a59494cc60a-attr-4-key" class="er entityLabel"></text></g><rect height="14" width="7.1875" y="201.93756103515625" x="52.599082946777344" class="er relationshipLabelBox"></rect><text style="text-anchor: middle; dominant-baseline: middle; font-size: 12px;" y="208.93756103515625" x="56.192832946777344" id="rel1" class="er relationshipLabel">q</text><rect height="14" width="7.1875" y="161.82188415527344" x="261.2633056640625" class="er relationshipLabelBox"></rect><text style="text-anchor: middle; dominant-baseline: middle; font-size: 12px;" y="168.82188415527344" x="264.8570556640625" id="rel2" class="er relationshipLabel">q</text><rect height="14" width="7.1875" y="186.86387634277344" x="190.0894317626953" class="er relationshipLabelBox"></rect><text style="text-anchor: middle; dominant-baseline: middle; font-size: 12px;" y="193.86387634277344" x="193.6831817626953" id="rel3" class="er relationshipLabel">q</text><rect height="14" width="7.1875" y="171.65069580078125" x="424.0311279296875" class="er relationshipLabelBox"></rect><text style="text-anchor: middle; dominant-baseline: middle; font-size: 12px;" y="178.65069580078125" x="427.6248779296875" id="rel4" class="er relationshipLabel">q</text><text class="entityTitleText" y="-25" x="239.1117401123047" text-anchor="middle">ERD</text></svg>